HIERARCHY
ROOT Hips
{
	OFFSET	0.00	0.00	0.00
	CHANNELS 6 Xposition Yposition Zposition Zrotation Xrotation Yrotation
	JOINT LeftUpLeg
	{
		OFFSET	 0.126116	-0.014019	-0.065224
		CHANNELS 3 Zrotation Xrotation Yrotation
		JOINT LeftLeg
		{
			OFFSET	 0.000000	 0.000000	 0.569914
			CHANNELS 3 Zrotation Xrotation Yrotation
			JOINT LeftFoot
			{
				OFFSET	 0.000000	 0.000000	 0.544423
				CHANNELS 3 Zrotation Xrotation Yrotation
				JOINT LeftToeBase
				{
					OFFSET	 0.000000	 0.000000	 0.207117
					CHANNELS 3 Zrotation Xrotation Yrotation
					End Site
					{
						OFFSET	 0.000000	 0.000000	 0.207117
					}
				}
			}
		}
	}
	JOINT RightUpLeg
	{
		OFFSET	-0.124023	-0.008373	-0.065224
		CHANNELS 3 Zrotation Xrotation Yrotation
		JOINT RightLeg
		{
			OFFSET	 0.000000	 0.000000	 0.570047
			CHANNELS 3 Zrotation Xrotation Yrotation
			JOINT RightFoot
			{
				OFFSET	 0.000000	 0.000000	 0.544354
				CHANNELS 3 Zrotation Xrotation Yrotation
				JOINT RightToeBase
				{
					OFFSET	 0.000000	 0.000000	 0.207540
					CHANNELS 3 Zrotation Xrotation Yrotation
					End Site
					{
						OFFSET	 0.000000	 0.000000	 0.207540
					}
				}
			}
		}
	}
	JOINT Spine
	{
		OFFSET	 0.000184	-0.007763	 0.117403
		CHANNELS 3 Zrotation Xrotation Yrotation
		JOINT Spine1
		{
			OFFSET	 0.000000	 0.000000	 0.137269
			CHANNELS 3 Zrotation Xrotation Yrotation
			JOINT Spine2
			{
				OFFSET	 0.000000	 0.000000	 0.156879
				CHANNELS 3 Zrotation Xrotation Yrotation
				JOINT LeftShoulder
				{
					OFFSET	 0.080501	-0.002496	 0.160144
					CHANNELS 3 Zrotation Xrotation Yrotation
					JOINT LeftArm
					{
						OFFSET	 0.000000	 0.000000	 0.164363
						CHANNELS 3 Zrotation Xrotation Yrotation
						JOINT LeftForeArm
						{
							OFFSET	 0.000000	 0.000000	 0.364576
							CHANNELS 3 Zrotation Xrotation Yrotation
							JOINT LeftHand
							{
								OFFSET	 0.000000	 0.000000	 0.360812
								CHANNELS 3 Zrotation Xrotation Yrotation
								JOINT LeftHandIndex1
								{
									OFFSET	 0.000000	 0.000000	 0.086006
									CHANNELS 3 Zrotation Xrotation Yrotation
									JOINT LeftHandIndex2
									{
										OFFSET	 0.000000	 0.000000	 0.047236
										CHANNELS 3 Zrotation Xrotation Yrotation
										JOINT LeftHandIndex3
										{
											OFFSET	-0.004284	-0.000551	 0.038166
											CHANNELS 3 Zrotation Xrotation Yrotation
											End Site
											{
												OFFSET	-0.004284	-0.000551	 0.038166
											}
										}
									}
								}
							}
						}
					}
				}
				JOINT Neck
				{
					OFFSET	 0.000000	 0.000000	 0.176489
					CHANNELS 3 Zrotation Xrotation Yrotation
					JOINT Head
					{
						OFFSET	 0.000000	-0.001747	 0.077940
						CHANNELS 3 Zrotation Xrotation Yrotation
						End Site
						{
							OFFSET	 0.000000	-0.001747	 0.077940
						}
					}
				}
				JOINT RightShoulder
				{
					OFFSET	-0.080363	 0.000306	 0.159706
					CHANNELS 3 Zrotation Xrotation Yrotation
					JOINT RightArm
					{
						OFFSET	 0.000000	 0.000000	 0.164196
						CHANNELS 3 Zrotation Xrotation Yrotation
						JOINT RightForeArm
						{
							OFFSET	 0.000000	 0.000000	 0.365611
							CHANNELS 3 Zrotation Xrotation Yrotation
							JOINT RightHand
							{
								OFFSET	 0.000000	 0.000000	 0.360648
								CHANNELS 3 Zrotation Xrotation Yrotation
								JOINT RightHandIndex1
								{
									OFFSET	 0.000000	 0.000000	 0.069977
									CHANNELS 3 Zrotation Xrotation Yrotation
									JOINT RightHandIndex2
									{
										OFFSET	 0.000000	 0.000000	 0.052305
										CHANNELS 3 Zrotation Xrotation Yrotation
										JOINT RightHandIndex3
										{
											OFFSET	 0.009002	-0.000782	 0.042196
											CHANNELS 3 Zrotation Xrotation Yrotation
											End Site
											{
												OFFSET	 0.009002	-0.000782	 0.042196
											}
										}
									}
								}
							}
						}
					}
				}
			}
		}
	}
}
MOTION
Frames:    4
Frame Time: 0.03333334
 0.000571	 0.042789	 1.274796	-0.085402	 2.476458	 0.706494	 1.217036	-6.234453	 178.231700	 2.296179	-14.313960	 0.671152	-0.137697	 71.817830	-0.034636	-2.385833	 28.452750	 0.000004	 6.296403	-5.423903	-178.866100	-0.785649	-12.060230	 0.912794	 5.585780	 70.403490	 0.720087	 2.384659	 28.388700	-0.000001	 2.689138	 7.183822	-0.373383	 1.498245	-5.928715	 0.341079	-3.886604	 9.304729	 0.757840	-91.172710	 69.809650	-177.834300	-6.764322	 1.111990	-10.695440	 25.647320	-4.119172	-14.870850	-8.250516	-7.465811	-4.063208	-2.027600	 6.559038	 9.033609	-5.188889	 0.308190	 3.541030	-5.234859	 0.342567	 0.430617	 4.363218	 17.730260	-6.668336	-9.062329	-13.476410	 1.742422	 89.019230	 68.712810	 177.374800	 10.458690	 7.810210	 11.642090	-27.782030	-4.648336	 12.466780	 5.204545	-7.584691	 6.089247	 1.803333	 3.979147	-15.098590	 4.898592	 3.004813	-9.310344	 5.224449	 0.395017	 2.014677
 0.000455	 0.044152	 1.274399	-0.067500	 2.862873	 0.743960	 1.114496	-6.928087	 178.188000	 2.219901	-14.743970	 0.671415	 0.027072	 71.908920	-0.127788	-2.385833	 28.452750	 0.000004	 6.324235	-6.069356	-178.870800	-0.764948	-12.399660	 0.942553	 5.649700	 70.495460	 0.636201	 2.384659	 28.388700	-0.000001	 2.642309	 7.585532	-0.392295	 1.498361	-7.380147	 0.338247	-3.850343	 11.105840	 0.877951	-91.073190	 69.137790	-177.608800	-6.184216	 0.313009	-11.112370	 25.328830	-4.314712	-15.874480	-7.221838	-8.035588	-4.211995	-2.027600	 6.559038	 9.033609	-5.188889	 0.308190	 3.541030	-5.234859	 0.342567	 0.430617	 4.573265	 19.485340	-7.226369	-9.003202	-14.579370	 1.667280	 88.883260	 67.789400	 177.104400	 10.380040	 7.218320	 12.283130	-27.825030	-4.946704	 13.208200	 4.167591	-7.811217	 5.774457	 1.803333	 3.979147	-15.098590	 4.898592	 3.004813	-9.310344	 5.224449	 0.395017	 2.014677
 0.000232	 0.046071	 1.273769	-0.031393	 3.383997	 0.795798	 0.968953	-7.887703	 178.120200	 2.186949	-15.360230	 0.690071	 0.150693	 72.101970	-0.218769	-2.385833	 28.452750	 0.000004	 6.337117	-6.965850	-178.883900	-0.747164	-12.903220	 0.984184	 5.721268	 70.632320	 0.551868	 2.384659	 28.388700	-0.000001	 2.632356	 7.995013	-0.408477	 1.511495	-9.001327	 0.326305	-3.872229	 13.000400	 1.020240	-90.979090	 68.499570	-177.412000	-5.609455	-0.276233	-11.405840	 24.911530	-4.558395	-17.197460	-6.212116	-8.811472	-4.475862	-2.027600	 6.559038	 9.033609	-5.188889	 0.308190	 3.541030	-5.234859	 0.342567	 0.430617	 4.699308	 21.278880	-7.776034	-8.879414	-15.774290	 1.586260	 88.732380	 66.752010	 176.833000	 10.227140	 6.722971	 12.884460	-27.761460	-5.289255	 14.131510	 3.037056	-8.155550	 5.474893	 1.803333	 3.979147	-15.098590	 4.898592	 3.004813	-9.310344	 5.224449	 0.395017	 2.014677
-0.000106	 0.048706	 1.272836	 0.024844	 4.054605	 0.863443	 0.718938	-9.142639	 178.013600	 2.150220	-16.175860	 0.730791	 0.227781	 72.396320	-0.308791	-2.385833	 28.452750	 0.000004	 6.334456	-8.145647	-178.905300	-0.732886	-13.587590	 1.038786	 5.815676	 70.811020	 0.451786	 2.384659	 28.388700	-0.000001	 2.662727	 8.402849	-0.425622	 1.535239	-10.754840	 0.307692	-3.955717	 14.972160	 1.188967	-90.892360	 67.897230	-177.244800	-5.029927	-0.549367	-11.624480	 24.388250	-4.835111	-18.837270	-5.230220	-9.806232	-4.869723	-2.027600	 6.559038	 9.033609	-5.188889	 0.308190	 3.541030	-5.234859	 0.342567	 0.430617	 4.730175	 23.120600	-8.306824	-8.681650	-17.074680	 1.504835	 88.565320	 65.587850	 176.559600	 9.973432	 6.417881	 13.480050	-27.582260	-5.661523	 15.219730	 1.805108	-8.617903	 5.201850	 1.803333	 3.979147	-15.098590	 4.898592	 3.004813	-9.310344	 5.224449	 0.395017	 2.014677
